<svg width="252" height="217" viewBox="0 0 252 217" fill="none" xmlns="http://www.w3.org/2000/svg">
<rect width="252" height="217" fill="black"/>
<path d="M69.652 117.288C68.324 117.288 67.092 117.072 65.956 116.64C64.836 116.208 63.86 115.6 63.028 114.816C62.212 114.032 61.572 113.112 61.108 112.056C60.66 111 60.436 109.848 60.436 108.6C60.436 107.352 60.66 106.2 61.108 105.144C61.572 104.088 62.22 103.168 63.052 102.384C63.884 101.6 64.86 100.992 65.98 100.56C67.1 100.128 68.316 99.912 69.628 99.912C70.956 99.912 72.172 100.128 73.276 100.56C74.396 100.992 75.364 101.6 76.18 102.384C77.012 103.168 77.66 104.088 78.124 105.144C78.588 106.184 78.82 107.336 78.82 108.6C78.82 109.848 78.588 111.008 78.124 112.08C77.66 113.136 77.012 114.056 76.18 114.84C75.364 115.608 74.396 116.208 73.276 116.64C72.172 117.072 70.964 117.288 69.652 117.288ZM69.628 113.976C70.38 113.976 71.068 113.848 71.692 113.592C72.332 113.336 72.892 112.968 73.372 112.488C73.852 112.008 74.22 111.44 74.476 110.784C74.748 110.128 74.884 109.4 74.884 108.6C74.884 107.8 74.748 107.072 74.476 106.416C74.22 105.76 73.852 105.192 73.372 104.712C72.908 104.232 72.356 103.864 71.716 103.608C71.076 103.352 70.38 103.224 69.628 103.224C68.876 103.224 68.18 103.352 67.54 103.608C66.916 103.864 66.364 104.232 65.884 104.712C65.404 105.192 65.028 105.76 64.756 106.416C64.5 107.072 64.372 107.8 64.372 108.6C64.372 109.384 64.5 110.112 64.756 110.784C65.028 111.44 65.396 112.008 65.86 112.488C66.34 112.968 66.9 113.336 67.54 113.592C68.18 113.848 68.876 113.976 69.628 113.976ZM89.206 117.288C86.822 117.288 84.958 116.624 83.614 115.296C82.27 113.968 81.598 112.072 81.598 109.608V100.2H85.486V109.464C85.486 111.064 85.814 112.216 86.47 112.92C87.126 113.624 88.046 113.976 89.23 113.976C90.414 113.976 91.334 113.624 91.99 112.92C92.646 112.216 92.974 111.064 92.974 109.464V100.2H96.814V109.608C96.814 112.072 96.142 113.968 94.798 115.296C93.454 116.624 91.59 117.288 89.206 117.288ZM103.855 117V103.368H98.4788V100.2H113.119V103.368H107.743V117H103.855ZM122.008 121.656V99.192H125.44V121.656H122.008ZM136.211 117V100.2H140.099V113.832H148.523V117H136.211ZM150.695 117V100.2H154.583V117H150.695ZM158.57 117V100.2H161.786L171.698 112.296H170.138V100.2H173.978V117H170.786L160.85 104.904H162.41V117H158.57ZM181.529 106.968H189.617V109.992H181.529V106.968ZM181.817 113.88H190.961V117H177.953V100.2H190.649V103.32H181.817V113.88Z" fill="white"/>
</svg>
