<svg width="252" height="217" viewBox="0 0 252 217" fill="none" xmlns="http://www.w3.org/2000/svg">
<rect width="252" height="217" fill="#383229"/>
<path d="M84.932 105.5L89.036 91.988H93.812L98.036 105.5H94.94L93.932 101.9H89.036L88.052 105.5H84.932ZM91.484 93.188L89.66 99.668H93.308L91.484 93.188ZM99.8144 105.5V91.988H104.854L107.446 104.276H107.494L110.038 91.988H115.054V105.5H112.054L112.27 93.236H112.222L109.558 105.5H105.334L102.694 93.236H102.646L102.814 105.5H99.8144ZM120.478 103.172H127.822V105.5H117.646V91.988H127.582V94.46H120.478V97.484H125.854V99.836H120.478V103.172ZM132.76 103.172H140.104V105.5H129.928V91.988H139.864V94.46H132.76V97.484H138.136V99.836H132.76V103.172ZM142.233 105.5V91.988H147.465C149.225 91.988 150.601 92.292 151.593 92.9C152.601 93.492 153.105 94.532 153.105 96.02C153.105 97.172 152.833 98.084 152.289 98.756C151.761 99.428 151.025 99.764 150.081 99.764C150.577 99.764 150.953 99.884 151.209 100.124C151.465 100.348 151.641 100.628 151.737 100.964C151.849 101.3 151.929 101.652 151.977 102.02C152.041 102.372 152.121 102.692 152.217 102.98C152.313 103.252 152.473 103.444 152.697 103.556C152.937 103.652 153.289 103.604 153.753 103.412V105.02C153.385 105.34 152.961 105.548 152.481 105.644C152.001 105.756 151.537 105.732 151.089 105.572C150.641 105.412 150.265 105.1 149.961 104.636C149.673 104.156 149.529 103.5 149.529 102.668C149.529 102.124 149.489 101.668 149.409 101.3C149.345 100.932 149.177 100.644 148.905 100.436C148.633 100.228 148.201 100.092 147.609 100.028C147.017 99.964 146.193 99.964 145.137 100.028V105.5H142.233ZM145.137 97.964H147.201C147.953 97.964 148.569 97.94 149.049 97.892C149.545 97.844 149.913 97.708 150.153 97.484C150.393 97.244 150.513 96.836 150.513 96.26C150.513 95.604 150.369 95.148 150.081 94.892C149.793 94.62 149.361 94.46 148.785 94.412C148.225 94.364 147.537 94.34 146.721 94.34H145.137V97.964ZM91.46 130.764C90.132 130.764 88.972 130.5 87.98 129.972C86.988 129.444 86.22 128.668 85.676 127.644C85.148 126.604 84.9 125.332 84.932 123.828C84.964 122.292 85.284 121.004 85.892 119.964C86.5 118.908 87.316 118.108 88.34 117.564C89.38 117.02 90.572 116.748 91.916 116.748C93.82 116.748 95.276 117.148 96.284 117.948C97.292 118.748 97.972 119.908 98.324 121.428L95.516 121.86C95.372 121.252 95.108 120.772 94.724 120.42C94.356 120.068 93.924 119.82 93.428 119.676C92.932 119.532 92.428 119.46 91.916 119.46C90.476 119.46 89.428 119.844 88.772 120.612C88.132 121.38 87.804 122.38 87.788 123.612C87.788 125.02 88.172 126.092 88.94 126.828C89.724 127.564 90.836 127.932 92.276 127.932C93.044 127.932 93.772 127.772 94.46 127.452C95.164 127.132 95.644 126.564 95.9 125.748H93.332V123.66H98.588V130.5H96.644L95.996 128.46H95.948C95.676 129.036 95.164 129.564 94.412 130.044C93.66 130.524 92.676 130.764 91.46 130.764ZM103.794 130.5H100.89V116.988H103.794V122.556H109.602V116.988H112.482V130.5H109.602V124.764H103.794V130.5ZM114.229 130.5L118.333 116.988H123.109L127.333 130.5H124.237L123.229 126.9H118.333L117.349 130.5H114.229ZM120.781 118.188L118.957 124.668H122.605L120.781 118.188ZM128.823 130.5V128.076L136.599 119.46H129.351V116.988H140.319V119.46L132.663 128.004H140.295V130.5H128.823ZM141.885 130.5L145.989 116.988H150.765L154.989 130.5H151.893L150.885 126.9H145.989L145.005 130.5H141.885ZM148.437 118.188L146.613 124.668H150.261L148.437 118.188ZM156.84 130.5V116.988H159.744V128.028H165.984V130.5H156.84Z" fill="#EADDCF"/>
</svg>
