<svg xmlns="http://www.w3.org/2000/svg" xmlns:xlink="http://www.w3.org/1999/xlink" viewBox="0,0,256,256" width="100px" height="100px"><g fill="none" fill-rule="nonzero" stroke="none" stroke-width="1" stroke-linecap="butt" stroke-linejoin="miter" stroke-miterlimit="10" stroke-dasharray="" stroke-dashoffset="0" font-family="none" font-weight="none" font-size="none" text-anchor="none" style="mix-blend-mode: normal"><g transform="scale(2.56,2.56)"><path d="M50,73c17,0 28,-8 28,-8c0,0 -3,7 -12,10l3,5c15.515,-0.5 22,-10.857 22,-10.857c0,-23 -10.11,-41.642 -10.11,-41.642c-10.11,-7.714 -19.728,-7.5 -19.728,-7.5l-1.162,0.999c11.935,3.714 17,10 17,10c-7.301,-4.071 -16,-7 -27,-7c-11,0 -19.699,2.929 -27,7c0,0 5.065,-6.286 17,-10l-1.163,-0.999c0,0 -9.618,-0.214 -19.728,7.5c0,0 -10.11,18.643 -10.11,41.642c0,0 6.485,10.357 22,10.857l3,-5c-9,-3 -12,-10 -12,-10c0,0 11.001,8 28.001,8z" fill="#ffffff"></path><ellipse cx="62.5" cy="55" rx="7.5" ry="8" fill="#ffffff"></ellipse><ellipse cx="37.5" cy="55" rx="7.5" ry="8" fill="#ffffff"></ellipse><path d="M69,81c-0.351,0 -0.677,-0.184 -0.857,-0.485l-3,-5c-0.156,-0.26 -0.186,-0.577 -0.08,-0.862c0.104,-0.284 0.334,-0.505 0.621,-0.602c4.361,-1.454 7.245,-3.895 9.021,-5.932c-4.683,2.426 -13.347,5.881 -24.705,5.881c-11.341,0 -19.995,-3.444 -24.683,-5.869c1.782,2.037 4.664,4.476 8.999,5.92c0.287,0.096 0.517,0.317 0.621,0.602c0.105,0.285 0.076,0.602 -0.08,0.862l-3,5c-0.187,0.311 -0.547,0.504 -0.89,0.485c-15.865,-0.512 -22.538,-10.885 -22.815,-11.326c-0.099,-0.159 -0.152,-0.343 -0.152,-0.531c0,-22.988 10.128,-41.931 10.23,-42.119c0.067,-0.125 0.16,-0.233 0.272,-0.318c10.274,-7.84 19.945,-7.713 20.356,-7.705c0.231,0.005 0.454,0.09 0.629,0.241l1.163,1c0.276,0.237 0.401,0.605 0.328,0.961c-0.074,0.356 -0.335,0.644 -0.683,0.752c-4.389,1.366 -7.824,3.087 -10.399,4.699c6.363,-2.452 13,-3.654 20.104,-3.654c7.093,0 13.72,1.197 20.072,3.642c-2.576,-1.61 -6.005,-3.329 -10.369,-4.687c-0.348,-0.108 -0.608,-0.396 -0.683,-0.752c-0.073,-0.356 0.052,-0.724 0.328,-0.961l1.163,-1c0.175,-0.151 0.397,-0.236 0.629,-0.241c0.409,-0.006 10.081,-0.136 20.356,7.705c0.112,0.085 0.205,0.194 0.272,0.318c0.104,0.188 10.232,19.131 10.232,42.119c0,0.188 -0.053,0.372 -0.152,0.531c-0.277,0.441 -6.95,10.814 -22.816,11.326c-0.011,0 -0.021,0 -0.032,0zM67.482,75.527l2.069,3.449c13.105,-0.65 19.41,-8.686 20.447,-10.141c-0.085,-21.143 -8.86,-38.688 -9.89,-40.672c-6.713,-5.063 -13.193,-6.549 -16.552,-6.984c9.766,3.771 14.026,8.952 14.221,9.193c0.301,0.373 0.295,0.906 -0.014,1.272c-0.309,0.366 -0.834,0.462 -1.252,0.229c-8.293,-4.624 -16.965,-6.873 -26.511,-6.873c-9.546,0 -18.218,2.249 -26.513,6.874c-0.417,0.233 -0.943,0.137 -1.252,-0.229c-0.309,-0.366 -0.314,-0.899 -0.014,-1.272c0.193,-0.241 4.45,-5.417 14.203,-9.187c-3.37,0.443 -9.854,1.939 -16.534,6.977c-1.029,1.987 -9.805,19.552 -9.89,40.673c1.037,1.456 7.342,9.491 20.447,10.141l2.069,-3.449c-8.418,-3.286 -11.313,-9.844 -11.437,-10.133c-0.178,-0.414 -0.057,-0.894 0.295,-1.175c0.352,-0.281 0.849,-0.292 1.212,-0.028c0.109,0.077 10.968,7.808 27.414,7.808c16.446,0 27.305,-7.731 27.412,-7.809c0.364,-0.264 0.861,-0.253 1.212,0.028c0.352,0.281 0.473,0.761 0.295,1.175c-0.124,0.29 -3.019,6.848 -11.437,10.133z" fill="#1f212b"></path><path d="M62.5,64c-4.687,0 -8.5,-4.038 -8.5,-9c0,-4.962 3.813,-9 8.5,-9c4.687,0 8.5,4.038 8.5,9c0,4.962 -3.813,9 -8.5,9zM62.5,48c-3.584,0 -6.5,3.14 -6.5,7c0,3.86 2.916,7 6.5,7c3.584,0 6.5,-3.14 6.5,-7c0,-3.86 -2.916,-7 -6.5,-7z" fill="#1f212b"></path><path d="M37.5,64c-4.687,0 -8.5,-4.038 -8.5,-9c0,-4.962 3.813,-9 8.5,-9c4.687,0 8.5,4.038 8.5,9c0,4.962 -3.813,9 -8.5,9zM37.5,48c-3.584,0 -6.5,3.14 -6.5,7c0,3.86 2.916,7 6.5,7c3.584,0 6.5,-3.14 6.5,-7c0,-3.86 -2.916,-7 -6.5,-7z" fill="#1f212b"></path><path d="M74.5,35.271c-0.082,0 -0.165,-0.02 -0.241,-0.062c-0.188,-0.104 -0.378,-0.198 -0.567,-0.292l-0.423,-0.214c-0.245,-0.128 -0.34,-0.43 -0.212,-0.675c0.129,-0.244 0.434,-0.339 0.675,-0.211l0.405,0.205c0.202,0.101 0.404,0.201 0.604,0.312c0.242,0.133 0.33,0.437 0.197,0.679c-0.091,0.164 -0.262,0.258 -0.438,0.258z" fill="#1f212b"></path><path d="M71.5,33.745c-0.071,0 -0.145,-0.015 -0.213,-0.048c-1.553,-0.731 -3.173,-1.385 -4.95,-2c-0.262,-0.09 -0.399,-0.375 -0.31,-0.636c0.09,-0.26 0.377,-0.397 0.636,-0.309c1.813,0.626 3.464,1.294 5.05,2.041c0.25,0.118 0.357,0.416 0.239,0.665c-0.085,0.181 -0.264,0.287 -0.452,0.287z" fill="#1f212b"></path><path d="M25.5,35.271c-0.176,0 -0.348,-0.094 -0.438,-0.259c-0.133,-0.242 -0.044,-0.546 0.197,-0.679c7.757,-4.262 15.849,-6.333 24.741,-6.333c5.102,0 9.891,0.689 14.643,2.106c0.265,0.079 0.415,0.357 0.337,0.622c-0.079,0.264 -0.358,0.417 -0.622,0.336c-4.659,-1.389 -9.355,-2.064 -14.358,-2.064c-8.719,0 -16.654,2.031 -24.259,6.208c-0.077,0.042 -0.159,0.063 -0.241,0.063z" fill="#1f212b"></path></g></g></svg>